<svg xmlns="http://www.w3.org/2000/svg" viewBox="0 0 260 230">
  <defs>
    <linearGradient id="metal" x1="0" y1="0" x2="0" y2="1">
      <stop offset="0%" stop-color="#2e3c4d"/>
      <stop offset="100%" stop-color="#151c28"/>
    </linearGradient>
    <linearGradient id="goldTrim" x1="0" y1="0" x2="0" y2="1">
      <stop offset="0%" stop-color="#ffd08f"/>
      <stop offset="100%" stop-color="#8a5c2c"/>
    </linearGradient>
    <linearGradient id="screen" x1="0" y1="0" x2="0" y2="1">
      <stop offset="0%" stop-color="#8be8ff" stop-opacity=".76"/>
      <stop offset="100%" stop-color="#2870a7" stop-opacity=".18"/>
    </linearGradient>
    <filter id="shadow" x="-30%" y="-30%" width="160%" height="160%">
      <feDropShadow dx="0" dy="14" stdDeviation="10" flood-color="#000000" flood-opacity=".38"/>
    </filter>
  </defs>

  <g filter="url(#shadow)">
    <ellipse cx="132" cy="206" rx="86" ry="14" fill="#0a0f16" opacity=".52"/>
    <path d="M44 106h172l-8 92H52z" fill="url(#metal)" stroke="#f2c98b" stroke-opacity=".22" stroke-width="2"/>
    <path d="M60 88h140l10 28H50z" fill="#39475c" stroke="#f4d4a2" stroke-opacity=".2" stroke-width="2"/>
    <path d="M76 42h108l14 56H62z" fill="#1b2433" stroke="#efc480" stroke-opacity=".16" stroke-width="2"/>
    <rect x="88" y="54" width="84" height="28" rx="10" fill="url(#screen)" stroke="#eafcff" stroke-opacity=".24" stroke-width="1.5"/>
    <rect x="94" y="60" width="38" height="6" rx="3" fill="#d4fdff" opacity=".74"/>
    <rect x="94" y="70" width="28" height="4" rx="2" fill="#d4fdff" opacity=".42"/>
    <circle cx="154" cy="68" r="8" fill="#91d8ff" opacity=".34"/>
    <path d="M68 114h46v24H68z" fill="#141c28" opacity=".82"/>
    <path d="M146 114h46v24h-46z" fill="#141c28" opacity=".82"/>
    <path d="M72 118h38v6H72z" fill="#f2c786" opacity=".3"/>
    <path d="M150 118h38v6h-38z" fill="#87ceff" opacity=".28"/>
    <path d="M70 150h120v12H70z" fill="#0d141e" opacity=".68"/>
    <path d="M86 162h88v10H86z" fill="#132032" opacity=".78"/>
    <path d="M68 198h14V116H68z" fill="#0f1724"/>
    <path d="M178 198h14V116h-14z" fill="#0f1724"/>
    <path d="M88 28l18 34h-16L74 40z" fill="url(#goldTrim)" opacity=".76"/>
    <path d="M172 28l14 12-16 22h-16z" fill="#63c9ff" opacity=".62"/>
    <circle cx="66" cy="98" r="8" fill="#ffb461" opacity=".28"/>
    <circle cx="194" cy="98" r="8" fill="#7ccfff" opacity=".22"/>
  </g>
</svg>
