<svg xmlns="http://www.w3.org/2000/svg" viewBox="0 0 880 540">
  <defs>
    <linearGradient id="floor" x1="0" y1="0" x2="0" y2="1">
      <stop offset="0%" stop-color="#141d29"/>
      <stop offset="100%" stop-color="#091019"/>
    </linearGradient>
    <linearGradient id="floorCut" x1="0" y1="0" x2="1" y2="1">
      <stop offset="0%" stop-color="#223040"/>
      <stop offset="100%" stop-color="#111824"/>
    </linearGradient>
  </defs>

  <rect x="0" y="370" width="880" height="170" fill="url(#floor)"/>
  <path d="M0 392h880v148H0z" fill="#161f2b" opacity=".94"/>
  <rect x="0" y="388" width="880" height="3" fill="#ffffff" opacity=".08"/>

  <g fill="url(#floorCut)" opacity=".42">
    <path d="M52 392h58l-40 148H10z"/>
    <path d="M158 392h58l-40 148h-60z"/>
    <path d="M264 392h58l-40 148h-60z"/>
    <path d="M370 392h58l-40 148h-60z"/>
    <path d="M476 392h58l-40 148h-60z"/>
    <path d="M582 392h58l-40 148h-60z"/>
    <path d="M688 392h58l-40 148h-60z"/>
    <path d="M794 392h58l-40 148h-60z"/>
  </g>

  <g opacity=".32">
    <ellipse cx="176" cy="438" rx="88" ry="20" fill="#f4b15e"/>
    <ellipse cx="440" cy="430" rx="118" ry="24" fill="#6b96ff"/>
    <ellipse cx="688" cy="438" rx="92" ry="18" fill="#74e8b1"/>
    <ellipse cx="690" cy="486" rx="96" ry="16" fill="#ff6c51"/>
  </g>

  <g fill="none" stroke-linecap="round">
    <path d="M98 432c30-14 62-21 96-21s66 7 98 21" stroke="#f2bf74" stroke-opacity=".2" stroke-width="3"/>
    <path d="M318 422c40-20 84-30 126-30 42 0 86 10 126 30" stroke="#7ea4ff" stroke-opacity=".22" stroke-width="3"/>
    <path d="M612 430c30-16 62-24 94-24 34 0 68 8 100 24" stroke="#7cf2bd" stroke-opacity=".2" stroke-width="3"/>
  </g>
</svg>
