<svg xmlns="http://www.w3.org/2000/svg" viewBox="0 0 880 540">
  <defs>
    <linearGradient id="bg" x1="0" y1="0" x2="0" y2="1">
      <stop offset="0%" stop-color="#060c14"/>
      <stop offset="48%" stop-color="#0b1420"/>
      <stop offset="100%" stop-color="#05070c"/>
    </linearGradient>
    <radialGradient id="nebulaBlue" cx="50%" cy="22%" r="42%">
      <stop offset="0%" stop-color="#538eff" stop-opacity=".36"/>
      <stop offset="44%" stop-color="#284f93" stop-opacity=".2"/>
      <stop offset="100%" stop-color="#09111b" stop-opacity="0"/>
    </radialGradient>
    <radialGradient id="nebulaGold" cx="18%" cy="14%" r="32%">
      <stop offset="0%" stop-color="#ffb56b" stop-opacity=".22"/>
      <stop offset="100%" stop-color="#09111b" stop-opacity="0"/>
    </radialGradient>
    <radialGradient id="nebulaMint" cx="84%" cy="20%" r="26%">
      <stop offset="0%" stop-color="#67ffd2" stop-opacity=".18"/>
      <stop offset="100%" stop-color="#09111b" stop-opacity="0"/>
    </radialGradient>
    <filter id="blurLarge" x="-20%" y="-20%" width="140%" height="140%">
      <feGaussianBlur stdDeviation="24"/>
    </filter>
  </defs>

  <rect width="880" height="540" fill="url(#bg)"/>
  <rect width="880" height="370" fill="#0a121c"/>
  <ellipse cx="440" cy="104" rx="310" ry="166" fill="url(#nebulaBlue)" filter="url(#blurLarge)"/>
  <ellipse cx="154" cy="82" rx="180" ry="110" fill="url(#nebulaGold)" filter="url(#blurLarge)"/>
  <ellipse cx="736" cy="96" rx="144" ry="98" fill="url(#nebulaMint)" filter="url(#blurLarge)"/>

  <g fill="#e9f6ff" opacity=".6">
    <circle cx="88" cy="62" r="1.1"/>
    <circle cx="128" cy="102" r="1.4"/>
    <circle cx="182" cy="74" r="1.2"/>
    <circle cx="224" cy="132" r=".9"/>
    <circle cx="282" cy="56" r="1.3"/>
    <circle cx="318" cy="96" r="1.1"/>
    <circle cx="364" cy="72" r="1.5"/>
    <circle cx="402" cy="118" r=".9"/>
    <circle cx="448" cy="44" r="1.1"/>
    <circle cx="490" cy="88" r="1.4"/>
    <circle cx="526" cy="120" r=".95"/>
    <circle cx="566" cy="66" r="1.2"/>
    <circle cx="612" cy="92" r="1.4"/>
    <circle cx="658" cy="58" r="1"/>
    <circle cx="704" cy="110" r="1.3"/>
    <circle cx="742" cy="74" r="1.1"/>
    <circle cx="786" cy="94" r="1.3"/>
  </g>

  <g opacity=".28">
    <path d="M0 0h176l-78 130L0 154Z" fill="#192739"/>
    <path d="M880 0H694l74 128 112 36Z" fill="#192739"/>
    <path d="M0 370h880v170H0z" fill="#05080e"/>
  </g>
</svg>
