<svg xmlns="http://www.w3.org/2000/svg" viewBox="0 0 300 300">
  <defs>
    <linearGradient id="shell" x1="0" y1="0" x2="0" y2="1">
      <stop offset="0%" stop-color="#293a4f"/>
      <stop offset="100%" stop-color="#161f2c"/>
    </linearGradient>
    <linearGradient id="inner" x1="0" y1="0" x2="0" y2="1">
      <stop offset="0%" stop-color="#31465e"/>
      <stop offset="100%" stop-color="#1c2837"/>
    </linearGradient>
    <radialGradient id="core" cx="50%" cy="45%" r="50%">
      <stop offset="0%" stop-color="#c9ecff" stop-opacity=".9"/>
      <stop offset="26%" stop-color="#80bbff" stop-opacity=".62"/>
      <stop offset="100%" stop-color="#254889" stop-opacity="0"/>
    </radialGradient>
    <filter id="shadow" x="-30%" y="-30%" width="160%" height="160%">
      <feDropShadow dx="0" dy="18" stdDeviation="14" flood-color="#000000" flood-opacity=".42"/>
    </filter>
  </defs>

  <g filter="url(#shadow)">
    <ellipse cx="150" cy="284" rx="104" ry="14" fill="#090d14" opacity=".48"/>
    <path d="M30 104h240l-12 158H42z" fill="url(#shell)" stroke="#e1bc86" stroke-opacity=".24" stroke-width="2.5"/>
    <path d="M46 126h208l-8 122H54z" fill="url(#inner)" stroke="#edf4ff" stroke-opacity=".08" stroke-width="1.5"/>
    <path d="M74 168h66v96H74z" rx="18" fill="#0b1420" opacity=".72" stroke="#e6c993" stroke-opacity=".1" stroke-width="1.5"/>
    <path d="M160 168h66v96h-66z" rx="18" fill="#0b1420" opacity=".72" stroke="#bfd7ff" stroke-opacity=".12" stroke-width="1.5"/>
    <circle cx="150" cy="132" r="52" fill="url(#core)"/>
    <circle cx="150" cy="132" r="34" fill="#0d1724" opacity=".94" stroke="#d7f4ff" stroke-opacity=".2" stroke-width="2"/>
    <circle cx="150" cy="132" r="18" fill="#9ddcff" opacity=".56"/>
    <circle cx="150" cy="132" r="70" fill="none" stroke="#d9efff" stroke-opacity=".2" stroke-width="4"/>
    <circle cx="150" cy="132" r="88" fill="none" stroke="#5e8ef6" stroke-opacity=".24" stroke-width="5"/>
    <path d="M96 82l18-34 16 34z" fill="#f4b66a" opacity=".78"/>
    <path d="M204 82l-18-34-16 34z" fill="#76c9ff" opacity=".78"/>
    <path d="M132 96h36v46h-36z" rx="14" fill="#101c27" opacity=".88"/>
    <path d="M140 112h20v8h-20z" rx="4" fill="#dff6ff" opacity=".42"/>
    <path d="M82 208h56v8H82z" fill="#f0cf9f" opacity=".08"/>
    <path d="M164 208h56v8h-56z" fill="#c3d6ff" opacity=".08"/>
    <path d="M108 246h84v12H108z" rx="6" fill="#0e131a" opacity=".68"/>
  </g>
</svg>
